<?xml version="1.0" encoding="utf-8"?>
<!-- Generator: Adobe Illustrator 28.0.0, SVG Export Plug-In . SVG Version: 6.00 Build 0)  -->
<svg version="1.1" id="Layer_1" xmlns="http://www.w3.org/2000/svg" xmlns:xlink="http://www.w3.org/1999/xlink" x="0px" y="0px"
	 viewBox="0 0 841.9 595.3" style="enable-background:new 0 0 512 512;" xml:space="preserve">
<style type="text/css">
	.st0{fill:#FFFFFF;}
</style>
<path d="M64.9,0h382.1C482.9,0,512,29.1,512,64.9v382.1c0,35.9-29.1,64.9-64.9,64.9H64.9C29.1,512,0,482.9,0,447.1V64.9
	C0,29.1,29.1,0,64.9,0z"/>
<g transform="translate(7,5)">
	<path class="st0" d="M67.5,31C46.2,31,29,48.2,29,69.5v363c0,21.3,17.2,38.5,38.5,38.5l0,0h363c21.3,0,38.5-17.2,38.5-38.5l0,0
		v-363c0-21.3-17.2-38.5-38.5-38.5H67.5z M116.5,67c27,0.8,48.5,22.9,48.5,50c0,27.6-22.4,50-50,50s-50-22.4-50-50
		c0-27.6,22.4-50,50-50C115.5,67,116,67,116.5,67z M384.5,67c27,0.8,48.5,22.9,48.5,50c0,27.6-22.4,50-50,50s-50-22.4-50-50
		c0-27.6,22.4-50,50-50C383.5,67,384,67,384.5,67z M249,201c27.6,0,50,22.4,50,50s-22.4,50-50,50s-50-22.4-50-50S221.4,201,249,201z
		 M116.5,335c27,0.8,48.5,22.9,48.5,50c0,27.6-22.4,50-50,50s-50-22.4-50-50c0-27.6,22.4-50,50-50C115.5,335,116,335,116.5,335z
		 M384.5,335c27,0.8,48.5,22.9,48.5,50c0,27.6-22.4,50-50,50s-50-22.4-50-50c0-27.6,22.4-50,50-50C383.5,335,384,335,384.5,335z"/>
</g>
</svg>
